<svg width="185" height="181" viewBox="0 0 185 181" fill="none" xmlns="http://www.w3.org/2000/svg">
<path d="M30.9336 73.0728C30.9925 73.0838 30.9752 72.9585 30.8817 72.6969C30.7684 72.4316 30.5335 72.164 30.177 71.894C29.8008 71.6203 29.2195 71.4101 28.4331 71.2633L21.7387 70.0138L19.669 81.1023L26.3634 82.3518C27.1498 82.4986 27.7678 82.5122 28.2174 82.3927C28.6473 82.2695 28.9531 82.1027 29.1347 81.8925C29.3164 81.6823 29.3876 81.5735 29.3482 81.5661L28.473 86.2552C28.532 86.2662 28.5147 86.1409 28.4211 85.8793C28.3078 85.614 28.0711 85.3562 27.711 85.1058C27.3348 84.8322 26.7535 84.6219 25.9671 84.4751L11.1628 81.7118C10.3763 81.565 9.76817 81.5532 9.33827 81.6765C8.89237 81.7763 8.57859 81.9314 8.39693 82.1416C8.21527 82.3519 8.1441 82.4607 8.18342 82.468L9.05865 77.779C9.01933 77.7716 9.04647 77.8988 9.14005 78.1604C9.23364 78.422 9.46852 78.6896 9.84469 78.9633C10.2012 79.2333 10.7727 79.4417 11.5591 79.5885L18.3714 80.8601L20.4412 69.7716L13.6288 68.5C12.8424 68.3532 12.2342 68.3414 11.8043 68.4646C11.3548 68.5842 11.0391 68.7491 10.8575 68.9593C10.6758 69.1695 10.6047 69.2783 10.644 69.2857L11.5192 64.5966C11.4602 64.5856 11.4874 64.7128 11.6006 64.9781C11.6942 65.2397 11.9291 65.5073 12.3052 65.781C12.6654 66.0313 13.2387 66.2299 14.0251 66.3767L28.8295 69.14C29.6159 69.2868 30.2339 69.3004 30.6834 69.1809C31.1133 69.0577 31.4191 68.8909 31.6008 68.6807C31.7824 68.4705 31.8536 68.3617 31.8143 68.3543L30.9336 73.0728Z" fill="#5D87C7" fill-opacity="0.23"/>
<path d="M36.797 56.6522C37.8114 57.2149 38.6036 57.9515 39.1734 58.8622C39.7529 59.7553 40.0615 60.7041 40.0991 61.7084C40.1464 62.6952 39.9373 63.6083 39.4717 64.4478C39.6088 63.3346 39.3331 62.2441 38.6447 61.1762C37.9738 60.1179 36.9737 59.2202 35.6444 58.483L20.9266 50.32C20.2445 49.9417 19.68 49.743 19.2332 49.7239C18.7689 49.6951 18.4173 49.7517 18.1785 49.8937C17.9397 50.0356 17.8377 50.1163 17.8727 50.1357L20.1863 45.9643C20.1513 45.9449 20.1368 46.0741 20.1428 46.3519C20.1489 46.6297 20.287 46.9579 20.5573 47.3365C20.8198 47.6879 21.2921 48.0528 21.9742 48.4311L36.797 56.6522Z" fill="#5D87C7" fill-opacity="0.23"/>
<path d="M64.6355 16.1586C65.1766 17.1847 65.414 18.2353 65.3477 19.3103C65.2898 20.3582 64.931 21.3501 64.2713 22.2858C63.6116 23.2215 62.6714 24.0112 61.4507 24.6549C60.7076 25.0467 59.8696 25.3868 58.9364 25.6754L61.9868 31.4604C62.3506 32.1504 62.7189 32.6345 63.0917 32.9127C63.4552 33.1733 63.7757 33.3095 64.0533 33.3214C64.3309 33.3333 64.4604 33.3215 64.4417 33.2862L60.2224 35.511C60.241 35.5463 60.3238 35.4462 60.4708 35.2104C60.6178 34.9746 60.6777 34.6378 60.6503 34.2C60.6407 33.7529 60.4493 33.1755 60.0761 32.4679L53.0659 19.1729C52.6927 18.4652 52.3198 17.9723 51.9469 17.6941C51.5918 17.4065 51.2755 17.2568 50.9979 17.2449C50.711 17.2153 50.5768 17.2182 50.5955 17.2536L55.7967 14.511C56.699 14.0353 57.4747 13.7054 58.1238 13.5214C58.7636 13.3197 59.3652 13.2173 59.9288 13.214C60.9394 13.2012 61.8623 13.472 62.6973 14.0265C63.523 14.5634 64.1691 15.2741 64.6355 16.1586ZM62.7741 17.581C62.1118 16.325 61.1862 15.5129 59.9973 15.145C58.8084 14.777 57.5683 14.9335 56.2768 15.6145L54.2069 16.7059L58.3907 24.6404C59.2261 24.3808 60.0595 24.0318 60.891 23.5934C62.1294 22.9404 62.907 22.0782 63.2238 21.0067C63.549 19.9083 63.3991 18.7664 62.7741 17.581Z" fill="#5D87C7" fill-opacity="0.23"/>
<path d="M84.9287 19.9666L83.2916 24.8409C83.0354 25.5972 82.9214 26.2149 82.9496 26.6941C82.9882 27.353 83.3153 27.8046 83.9306 28.0489L79.648 28.3003C79.8477 28.2886 80.1255 28.072 80.4814 27.6504C80.8373 27.2288 81.2302 26.4144 81.6602 25.2071L88.3851 6.15029L97.2387 24.3828C97.7412 25.4352 98.2039 26.1493 98.6266 26.5252C99.0693 26.8999 99.4117 27.1001 99.6536 27.126L94.6821 27.4178C95.1672 27.1489 95.3951 26.7649 95.3658 26.2658C95.3412 25.8465 95.1463 25.2569 94.7812 24.497L92.3859 19.5288L84.9287 19.9666ZM91.8347 18.3291L88.1009 10.5245L85.3658 18.7088L91.8347 18.3291Z" fill="#5D87C7" fill-opacity="0.23"/>
<path d="M116.242 19.376C117.118 19.6563 117.944 19.6999 118.72 19.507C119.502 19.2951 120.158 18.917 120.689 18.3729C121.245 17.8158 121.639 17.1754 121.87 16.4515C122.108 15.7086 122.168 14.9615 122.052 14.2102C121.96 13.446 121.658 12.7508 121.144 12.1246C120.63 11.4983 119.907 11.036 118.973 10.7374L116.544 9.96068L111.464 25.848C111.22 26.61 111.129 27.2214 111.192 27.6824C111.261 28.1243 111.388 28.4485 111.574 28.655C111.766 28.8424 111.868 28.917 111.88 28.8789L107.337 27.4259C107.325 27.464 107.454 27.453 107.725 27.3927C107.997 27.3325 108.279 27.1393 108.572 26.8131C108.885 26.493 109.163 25.952 109.406 25.19L113.975 10.9029C114.225 10.1219 114.319 9.50085 114.256 9.03989C114.219 8.56597 114.107 8.22578 113.921 8.01933C113.741 7.79383 113.642 7.70965 113.624 7.7668L119.282 9.57619C120.768 10.0514 121.908 10.6889 122.702 11.4888C123.521 12.2758 124.015 13.1268 124.184 14.0418C124.379 14.9439 124.33 15.8522 124.037 16.7666C123.794 17.5285 123.372 18.2231 122.773 18.8503C122.179 19.4584 121.451 19.929 120.589 20.2622C119.751 20.5823 118.852 20.704 117.889 20.6272L117.405 20.5667L120.387 28.5757C120.816 29.5319 121.186 30.28 121.496 30.8202C121.806 31.3604 122.035 31.7276 122.183 31.9218C122.35 32.1222 122.449 32.238 122.481 32.2692L119.138 31.2001L114.528 18.8277L116.242 19.376Z" fill="#5D87C7" fill-opacity="0.23"/>
<path d="M139.096 41.8523L137.326 27.8576L132.921 34.2221C132.352 35.0444 132.069 35.6996 132.071 36.1879C132.074 36.6761 132.163 37.005 132.337 37.1745L128.538 34.5453C128.758 34.649 129.1 34.63 129.563 34.4882C130.037 34.3301 130.565 33.8316 131.145 32.9929L139.732 20.5846C140.313 19.7459 140.596 19.0906 140.582 18.6188C140.568 18.147 140.469 17.7985 140.284 17.5734L144.083 20.2026C143.863 20.0989 143.524 20.1318 143.066 20.3014C142.62 20.4545 142.1 20.9587 141.509 21.8138L137.377 27.7836L147.253 26.008C148.839 25.7193 149.751 25.4023 149.99 25.057C150.195 24.761 150.2 24.5086 150.003 24.2999L153.876 26.9803C153.591 26.8311 153.046 26.7218 152.243 26.6523C151.467 26.5778 150.328 26.6773 148.826 26.9507L139.51 28.6029L141.056 39.7061C141.209 41.1012 141.386 42.1112 141.586 42.7361C141.814 43.3559 141.995 43.7612 142.131 43.9522L139.096 41.8523Z" fill="#5D87C7" fill-opacity="0.23"/>
<path d="M163.278 64.8173C163.556 65.61 163.51 66.3255 163.141 66.9637C162.79 67.5954 162.256 68.037 161.539 68.2885C160.84 68.5334 160.148 68.522 159.46 68.2544C158.773 67.9868 158.29 67.4566 158.012 66.664C157.734 65.8713 157.78 65.1558 158.15 64.5176C158.519 63.8793 159.053 63.4377 159.752 63.1928C160.469 62.9413 161.162 62.9526 161.83 63.2269C162.517 63.4945 163 64.0247 163.278 64.8173Z" fill="#5D87C7" fill-opacity="0.23"/>
<path d="M150.843 111.474C150.788 111.45 150.777 111.576 150.809 111.852C150.86 112.136 151.028 112.45 151.315 112.793C151.62 113.144 152.139 113.48 152.873 113.8L159.115 116.522L163.624 106.182L157.381 103.46C156.648 103.14 156.049 102.988 155.584 103.003C155.137 103.027 154.802 103.121 154.578 103.285C154.354 103.449 154.26 103.539 154.296 103.555L156.203 99.1822C156.148 99.1582 156.137 99.2842 156.169 99.5602C156.22 99.8441 156.393 100.149 156.687 100.473C156.992 100.825 157.511 101.16 158.245 101.48L172.049 107.5C172.783 107.819 173.373 107.967 173.819 107.944C174.276 107.947 174.617 107.866 174.841 107.702C175.065 107.538 175.159 107.448 175.122 107.432L173.216 111.805C173.253 111.821 173.255 111.691 173.222 111.415C173.19 111.139 173.021 110.825 172.716 110.474C172.429 110.131 171.919 109.799 171.186 109.479L164.834 106.709L160.325 117.049L166.677 119.819C167.411 120.139 168.001 120.287 168.447 120.264C168.912 120.248 169.257 120.158 169.481 119.994C169.705 119.83 169.799 119.74 169.762 119.724L167.856 124.097C167.911 124.121 167.913 123.991 167.862 123.707C167.83 123.431 167.661 123.117 167.356 122.766C167.061 122.441 166.547 122.119 165.814 121.799L152.009 115.779C151.276 115.46 150.677 115.308 150.212 115.323C149.765 115.346 149.43 115.44 149.206 115.604C148.981 115.768 148.888 115.858 148.924 115.874L150.843 111.474Z" fill="#5D87C7" fill-opacity="0.23"/>
<path d="M143.17 129.016C142.308 128.24 141.702 127.344 141.351 126.329C140.987 125.328 140.9 124.334 141.089 123.347C141.265 122.375 141.674 121.532 142.316 120.819C141.932 121.873 141.956 122.998 142.387 124.193C142.802 125.375 143.575 126.474 144.705 127.491L157.212 138.753C157.791 139.275 158.297 139.596 158.728 139.715C159.174 139.847 159.529 139.871 159.794 139.786C160.058 139.702 160.176 139.646 160.146 139.619L156.954 143.164C156.984 143.191 157.027 143.068 157.084 142.796C157.14 142.524 157.079 142.173 156.901 141.743C156.724 141.342 156.346 140.88 155.766 140.358L143.17 129.016Z" fill="#5D87C7" fill-opacity="0.23"/>
<path d="M115.624 166.188C115.208 165.105 115.097 164.034 115.291 162.974C115.473 161.941 115.947 160.998 116.713 160.148C117.479 159.297 118.507 158.625 119.795 158.13C120.579 157.83 121.452 157.592 122.413 157.416L120.071 151.309C119.792 150.581 119.484 150.057 119.146 149.736C118.816 149.434 118.514 149.261 118.24 149.216C117.966 149.171 117.836 149.168 117.85 149.205L122.304 147.497C122.29 147.46 122.196 147.549 122.022 147.766C121.848 147.983 121.748 148.31 121.723 148.748C121.68 149.193 121.801 149.789 122.088 150.536L127.469 164.57C127.756 165.317 128.068 165.85 128.405 166.171C128.723 166.499 129.019 166.685 129.294 166.73C129.575 166.793 129.709 166.806 129.694 166.769L124.204 168.874C123.252 169.239 122.442 169.475 121.776 169.58C121.117 169.705 120.507 169.735 119.947 169.671C118.942 169.564 118.058 169.185 117.295 168.536C116.539 167.904 115.982 167.122 115.624 166.188ZM117.641 164.997C118.149 166.323 118.972 167.239 120.109 167.746C121.245 168.252 122.495 168.244 123.858 167.721L126.043 166.884L122.832 158.508C121.971 158.667 121.102 158.914 120.225 159.251C118.918 159.752 118.043 160.516 117.601 161.542C117.148 162.594 117.161 163.746 117.641 164.997Z" fill="#5D87C7" fill-opacity="0.23"/>
<path d="M98.2895 161.89L100.177 157.107C100.471 156.365 100.617 155.754 100.614 155.274C100.609 154.614 100.306 154.146 99.7042 153.87L103.994 153.84C103.794 153.842 103.505 154.044 103.128 154.446C102.751 154.849 102.316 155.642 101.825 156.826L94.1233 175.509L86.2244 156.843C85.7769 155.766 85.3518 155.029 84.9491 154.632C84.5263 154.235 84.1948 154.017 83.9545 153.979L88.9344 153.944C88.4361 154.188 88.1886 154.56 88.1921 155.06C88.195 155.48 88.3591 156.078 88.6845 156.856L90.8196 161.942L98.2895 161.89ZM91.3081 163.168L94.6333 171.155L97.788 163.124L91.3081 163.168Z" fill="#5D87C7" fill-opacity="0.23"/>
<path d="M67.5484 159.618C66.6897 159.288 65.8677 159.196 65.0822 159.344C64.2896 159.51 63.6125 159.85 63.0509 160.362C62.4635 160.886 62.0334 161.503 61.7604 162.212C61.4803 162.94 61.3768 163.683 61.4499 164.439C61.4971 165.208 61.759 165.919 62.2357 166.574C62.7123 167.229 63.4079 167.732 64.3225 168.084L66.7024 169L72.6929 153.433C72.9802 152.686 73.106 152.081 73.0702 151.617C73.0272 151.172 72.9188 150.841 72.7451 150.624C72.5642 150.426 72.4666 150.346 72.4522 150.383L76.904 152.096C76.9183 152.059 76.7884 152.062 76.5141 152.107C76.2399 152.151 75.9469 152.328 75.6353 152.637C75.3049 152.938 74.9961 153.462 74.7088 154.209L69.3216 168.208C69.0271 168.973 68.8978 169.588 68.9336 170.052C68.9435 170.527 69.0354 170.873 69.2091 171.09C69.3756 171.325 69.4697 171.415 69.4912 171.359L63.9475 169.226C62.4916 168.666 61.3904 167.963 60.6438 167.119C59.8715 166.286 59.4272 165.408 59.3111 164.484C59.1691 163.572 59.2705 162.669 59.6152 161.773C59.9026 161.026 60.3636 160.357 60.9984 159.765C61.626 159.193 62.3799 158.765 63.2602 158.482C64.1146 158.211 65.02 158.141 65.9763 158.274L66.4566 158.362L63.9423 150.194C63.5691 149.215 63.2433 148.447 62.9649 147.889C62.6864 147.332 62.479 146.952 62.3426 146.75C62.1875 146.54 62.095 146.419 62.0648 146.386L65.3406 147.646L69.2283 160.264L67.5484 159.618Z" fill="#5D87C7" fill-opacity="0.23"/>
<path d="M46.3168 133.64L46.2761 147.746L51.4614 141.999C52.1313 141.257 52.4964 140.644 52.5565 140.159C52.6166 139.674 52.5709 139.337 52.4195 139.146L55.8495 142.242C55.6445 142.11 55.3034 142.086 54.8261 142.167C54.3354 142.263 53.7484 142.689 53.065 143.447L42.9557 154.65C42.2724 155.407 41.9074 156.02 41.8607 156.49C41.814 156.96 41.8678 157.318 42.0221 157.565L38.5921 154.47C38.7971 154.601 39.1375 154.612 39.6133 154.503C40.0758 154.408 40.6554 153.975 41.3521 153.203L46.2158 147.813L36.1941 148.306C34.584 148.388 33.6383 148.586 33.3569 148.897C33.1157 149.165 33.079 149.414 33.2467 149.647L29.7499 146.491C30.0142 146.676 30.5403 146.854 31.3279 147.026C32.0873 147.2 33.2297 147.247 34.7551 147.169L44.2059 146.726L44.0979 135.517C44.125 134.113 44.0795 133.089 43.9614 132.444C43.8151 131.8 43.687 131.374 43.5773 131.168L46.3168 133.64Z" fill="#5D87C7" fill-opacity="0.23"/>
<path d="M18.4194 114.788C18.3267 113.953 18.5321 113.267 19.0357 112.728C19.5194 112.191 20.1389 111.881 20.8942 111.797C21.6297 111.715 22.3022 111.882 22.9118 112.297C23.5214 112.712 23.8725 113.337 23.9653 114.172C24.058 115.007 23.8526 115.694 23.349 116.233C22.8454 116.772 22.2259 117.082 21.4904 117.164C20.7351 117.248 20.0625 117.081 19.4729 116.663C18.8633 116.248 18.5121 115.623 18.4194 114.788Z" fill="#5D87C7" fill-opacity="0.23"/>
</svg>
